<mxfile host="app.diagrams.net" modified="2023-09-22T12:14:53.049Z" agent="Mozilla/5.0 (Macintosh; Intel Mac OS X 10_15_7) AppleWebKit/537.36 (KHTML, like Gecko) Chrome/115.0.0.0 Safari/537.36" etag="s_-NyxtSgQx2-F6aj1ri" version="21.1.7" type="browser">
  <diagram name="Page-1" id="wT7bVdKFhrSaxuUq9gso">
    <mxGraphModel dx="1853" dy="686" grid="1" gridSize="10" guides="1" tooltips="1" connect="1" arrows="1" fold="1" page="1" pageScale="1" pageWidth="827" pageHeight="1169" math="0" shadow="0">
      <root>
        <mxCell id="0" />
        <mxCell id="1" parent="0" />
        <mxCell id="df_W7OwmBaYnNMODsxXJ-1" value="&lt;font style=&quot;font-size: 24px;&quot;&gt;Video Streaming Service Like Youtube / Netflix&lt;/font&gt;" style="text;html=1;align=left;verticalAlign=middle;resizable=0;points=[];autosize=1;strokeColor=none;fillColor=none;" parent="1" vertex="1">
          <mxGeometry x="-100" y="60" width="520" height="40" as="geometry" />
        </mxCell>
        <mxCell id="df_W7OwmBaYnNMODsxXJ-2" value="Requirement:&lt;br&gt;&lt;div style=&quot;text-align: left;&quot;&gt;&lt;span style=&quot;background-color: initial;&quot;&gt;1.Should be able to upload/share/view videos&lt;/span&gt;&lt;/div&gt;&lt;div style=&quot;text-align: left;&quot;&gt;&lt;span style=&quot;background-color: initial;&quot;&gt;2. Perform&lt;/span&gt;&lt;span style=&quot;background-color: initial;&quot;&gt;&amp;nbsp;search based on titles&lt;/span&gt;&lt;/div&gt;&lt;div style=&quot;text-align: left;&quot;&gt;&lt;span style=&quot;background-color: initial;&quot;&gt;3. Users should be able to add and view comments&lt;/span&gt;&lt;/div&gt;&lt;div style=&quot;text-align: left;&quot;&gt;&lt;span style=&quot;background-color: initial;&quot;&gt;&lt;br&gt;&lt;/span&gt;&lt;/div&gt;" style="text;html=1;align=center;verticalAlign=middle;resizable=0;points=[];autosize=1;strokeColor=none;fillColor=none;" parent="1" vertex="1">
          <mxGeometry x="-140" y="100" width="300" height="90" as="geometry" />
        </mxCell>
        <mxCell id="df_W7OwmBaYnNMODsxXJ-3" value="&lt;div style=&quot;text-align: left;&quot;&gt;&lt;span style=&quot;background-color: initial;&quot;&gt;Non Functional&lt;/span&gt;&lt;/div&gt;&lt;div style=&quot;text-align: left;&quot;&gt;&lt;span style=&quot;background-color: initial;&quot;&gt;1.Highly reliable, video should not lost&lt;/span&gt;&lt;/div&gt;&lt;div style=&quot;text-align: left;&quot;&gt;&lt;span style=&quot;background-color: initial;&quot;&gt;2. Highly available, Consistency can be compromised a bit&lt;/span&gt;&lt;/div&gt;&lt;div style=&quot;text-align: left;&quot;&gt;&lt;span style=&quot;background-color: initial;&quot;&gt;3. No lag which&amp;nbsp;&lt;/span&gt;&lt;span style=&quot;background-color: initial;&quot;&gt;watching&lt;/span&gt;&lt;/div&gt;" style="text;html=1;align=center;verticalAlign=middle;resizable=0;points=[];autosize=1;strokeColor=none;fillColor=none;" parent="1" vertex="1">
          <mxGeometry x="-135" y="195" width="330" height="70" as="geometry" />
        </mxCell>
        <mxCell id="df_W7OwmBaYnNMODsxXJ-4" value="&lt;b&gt;API Design:&lt;/b&gt;" style="text;html=1;align=center;verticalAlign=middle;resizable=0;points=[];autosize=1;strokeColor=none;fillColor=none;" parent="1" vertex="1">
          <mxGeometry x="310" y="110" width="90" height="30" as="geometry" />
        </mxCell>
        <mxCell id="df_W7OwmBaYnNMODsxXJ-5" value="Uploadvideo(dev_key, video_titile, video_description, tags[],video_contents)&lt;br&gt;returns string&amp;nbsp;" style="text;html=1;align=left;verticalAlign=middle;resizable=0;points=[];autosize=1;strokeColor=none;fillColor=none;" parent="1" vertex="1">
          <mxGeometry x="315" y="140" width="430" height="40" as="geometry" />
        </mxCell>
        <mxCell id="df_W7OwmBaYnNMODsxXJ-6" value="searchvideo(dev_key, search_query, user_location, max_videos_to_return)&lt;br&gt;returns JSON" style="text;html=1;align=left;verticalAlign=middle;resizable=0;points=[];autosize=1;strokeColor=none;fillColor=none;" parent="1" vertex="1">
          <mxGeometry x="315" y="195" width="420" height="40" as="geometry" />
        </mxCell>
        <mxCell id="df_W7OwmBaYnNMODsxXJ-7" value="streamVideo(dev_key,video_if,codec,resolution)&lt;br&gt;returns video chunk" style="text;html=1;align=left;verticalAlign=middle;resizable=0;points=[];autosize=1;strokeColor=none;fillColor=none;" parent="1" vertex="1">
          <mxGeometry x="315" y="255" width="280" height="40" as="geometry" />
        </mxCell>
        <mxCell id="Fu_qNlI0L5MS78SAmKYr-3" style="edgeStyle=orthogonalEdgeStyle;rounded=0;orthogonalLoop=1;jettySize=auto;html=1;" edge="1" parent="1" source="Fu_qNlI0L5MS78SAmKYr-1">
          <mxGeometry relative="1" as="geometry">
            <mxPoint x="15" y="555" as="targetPoint" />
          </mxGeometry>
        </mxCell>
        <mxCell id="Fu_qNlI0L5MS78SAmKYr-4" style="edgeStyle=orthogonalEdgeStyle;rounded=0;orthogonalLoop=1;jettySize=auto;html=1;exitX=1;exitY=0.25;exitDx=0;exitDy=0;entryX=-0.075;entryY=0.188;entryDx=0;entryDy=0;entryPerimeter=0;" edge="1" parent="1" source="Fu_qNlI0L5MS78SAmKYr-1">
          <mxGeometry relative="1" as="geometry">
            <mxPoint x="9" y="530.04" as="targetPoint" />
          </mxGeometry>
        </mxCell>
        <mxCell id="Fu_qNlI0L5MS78SAmKYr-5" style="edgeStyle=orthogonalEdgeStyle;rounded=0;orthogonalLoop=1;jettySize=auto;html=1;exitX=1;exitY=0.75;exitDx=0;exitDy=0;entryX=0;entryY=1;entryDx=0;entryDy=0;" edge="1" parent="1" source="Fu_qNlI0L5MS78SAmKYr-1">
          <mxGeometry relative="1" as="geometry">
            <mxPoint x="15" y="595" as="targetPoint" />
          </mxGeometry>
        </mxCell>
        <mxCell id="Fu_qNlI0L5MS78SAmKYr-1" value="client" style="rounded=1;whiteSpace=wrap;html=1;" vertex="1" parent="1">
          <mxGeometry x="-260" y="535" width="120" height="60" as="geometry" />
        </mxCell>
        <mxCell id="Fu_qNlI0L5MS78SAmKYr-22" style="edgeStyle=orthogonalEdgeStyle;rounded=0;orthogonalLoop=1;jettySize=auto;html=1;entryX=0.388;entryY=0;entryDx=0;entryDy=0;entryPerimeter=0;" edge="1" parent="1" source="Fu_qNlI0L5MS78SAmKYr-2" target="Fu_qNlI0L5MS78SAmKYr-18">
          <mxGeometry relative="1" as="geometry">
            <Array as="points">
              <mxPoint x="380" y="540" />
              <mxPoint x="380" y="330" />
              <mxPoint x="505" y="330" />
            </Array>
          </mxGeometry>
        </mxCell>
        <mxCell id="Fu_qNlI0L5MS78SAmKYr-2" value="" style="image;html=1;image=img/lib/clip_art/computers/Server_Rack_128x128.png" vertex="1" parent="1">
          <mxGeometry x="205" y="520" width="80" height="80" as="geometry" />
        </mxCell>
        <mxCell id="Fu_qNlI0L5MS78SAmKYr-6" value="upload" style="text;html=1;align=center;verticalAlign=middle;resizable=0;points=[];autosize=1;strokeColor=none;fillColor=none;" vertex="1" parent="1">
          <mxGeometry x="-120" y="510" width="60" height="30" as="geometry" />
        </mxCell>
        <mxCell id="Fu_qNlI0L5MS78SAmKYr-7" value="search" style="text;html=1;align=center;verticalAlign=middle;resizable=0;points=[];autosize=1;strokeColor=none;fillColor=none;" vertex="1" parent="1">
          <mxGeometry x="-65" y="600" width="60" height="30" as="geometry" />
        </mxCell>
        <mxCell id="Fu_qNlI0L5MS78SAmKYr-8" value="view" style="text;html=1;align=center;verticalAlign=middle;resizable=0;points=[];autosize=1;strokeColor=none;fillColor=none;" vertex="1" parent="1">
          <mxGeometry x="-55" y="550" width="50" height="30" as="geometry" />
        </mxCell>
        <mxCell id="Fu_qNlI0L5MS78SAmKYr-20" value="" style="edgeStyle=orthogonalEdgeStyle;rounded=0;orthogonalLoop=1;jettySize=auto;html=1;" edge="1" parent="1" source="Fu_qNlI0L5MS78SAmKYr-9" target="Fu_qNlI0L5MS78SAmKYr-19">
          <mxGeometry relative="1" as="geometry" />
        </mxCell>
        <mxCell id="Fu_qNlI0L5MS78SAmKYr-21" value="" style="edgeStyle=orthogonalEdgeStyle;rounded=0;orthogonalLoop=1;jettySize=auto;html=1;" edge="1" parent="1" source="Fu_qNlI0L5MS78SAmKYr-9" target="Fu_qNlI0L5MS78SAmKYr-2">
          <mxGeometry relative="1" as="geometry" />
        </mxCell>
        <mxCell id="Fu_qNlI0L5MS78SAmKYr-9" value="server" style="text;html=1;align=center;verticalAlign=middle;resizable=0;points=[];autosize=1;strokeColor=none;fillColor=none;" vertex="1" parent="1">
          <mxGeometry x="220" y="625" width="60" height="30" as="geometry" />
        </mxCell>
        <mxCell id="Fu_qNlI0L5MS78SAmKYr-16" style="edgeStyle=orthogonalEdgeStyle;rounded=0;orthogonalLoop=1;jettySize=auto;html=1;exitX=0.5;exitY=1;exitDx=0;exitDy=0;entryX=0.5;entryY=0;entryDx=0;entryDy=0;entryPerimeter=0;" edge="1" parent="1" source="Fu_qNlI0L5MS78SAmKYr-10" target="Fu_qNlI0L5MS78SAmKYr-14">
          <mxGeometry relative="1" as="geometry" />
        </mxCell>
        <mxCell id="Fu_qNlI0L5MS78SAmKYr-44" style="edgeStyle=orthogonalEdgeStyle;rounded=0;orthogonalLoop=1;jettySize=auto;html=1;entryX=1;entryY=0.5;entryDx=0;entryDy=0;" edge="1" parent="1" source="Fu_qNlI0L5MS78SAmKYr-10" target="Fu_qNlI0L5MS78SAmKYr-39">
          <mxGeometry relative="1" as="geometry">
            <Array as="points">
              <mxPoint x="435" y="580" />
              <mxPoint x="435" y="780" />
            </Array>
          </mxGeometry>
        </mxCell>
        <mxCell id="Fu_qNlI0L5MS78SAmKYr-10" value="" style="image;html=1;image=img/lib/clip_art/computers/Server_Rack_128x128.png" vertex="1" parent="1">
          <mxGeometry x="590" y="520" width="80" height="80" as="geometry" />
        </mxCell>
        <mxCell id="Fu_qNlI0L5MS78SAmKYr-11" value="" style="edgeStyle=none;html=1;strokeColor=#808080;endArrow=block;endSize=10;dashed=0;verticalAlign=bottom;strokeWidth=2;rounded=0;" edge="1" parent="1" target="Fu_qNlI0L5MS78SAmKYr-10">
          <mxGeometry width="160" relative="1" as="geometry">
            <mxPoint x="285" y="559.5" as="sourcePoint" />
            <mxPoint x="445" y="559.5" as="targetPoint" />
          </mxGeometry>
        </mxCell>
        <mxCell id="Fu_qNlI0L5MS78SAmKYr-12" value="Processing Queue" style="text;html=1;align=center;verticalAlign=middle;resizable=0;points=[];autosize=1;strokeColor=none;fillColor=none;" vertex="1" parent="1">
          <mxGeometry x="354" y="540" width="120" height="30" as="geometry" />
        </mxCell>
        <mxCell id="Fu_qNlI0L5MS78SAmKYr-13" value="Encode" style="text;html=1;align=center;verticalAlign=middle;resizable=0;points=[];autosize=1;strokeColor=none;fillColor=none;" vertex="1" parent="1">
          <mxGeometry x="590" y="485" width="60" height="30" as="geometry" />
        </mxCell>
        <mxCell id="Fu_qNlI0L5MS78SAmKYr-45" style="edgeStyle=orthogonalEdgeStyle;rounded=0;orthogonalLoop=1;jettySize=auto;html=1;exitX=0;exitY=0.5;exitDx=0;exitDy=0;exitPerimeter=0;" edge="1" parent="1" source="Fu_qNlI0L5MS78SAmKYr-14" target="Fu_qNlI0L5MS78SAmKYr-2">
          <mxGeometry relative="1" as="geometry">
            <Array as="points">
              <mxPoint x="610" y="660" />
              <mxPoint x="280" y="660" />
            </Array>
          </mxGeometry>
        </mxCell>
        <mxCell id="Fu_qNlI0L5MS78SAmKYr-14" value="" style="strokeWidth=2;html=1;shape=mxgraph.flowchart.database;whiteSpace=wrap;" vertex="1" parent="1">
          <mxGeometry x="610" y="740" width="60" height="60" as="geometry" />
        </mxCell>
        <mxCell id="Fu_qNlI0L5MS78SAmKYr-15" value="Big tableThumbnail storage" style="text;html=1;align=center;verticalAlign=middle;resizable=0;points=[];autosize=1;strokeColor=none;fillColor=none;" vertex="1" parent="1">
          <mxGeometry x="535" y="795" width="170" height="30" as="geometry" />
        </mxCell>
        <mxCell id="Fu_qNlI0L5MS78SAmKYr-37" style="edgeStyle=orthogonalEdgeStyle;rounded=0;orthogonalLoop=1;jettySize=auto;html=1;" edge="1" parent="1" source="Fu_qNlI0L5MS78SAmKYr-18" target="Fu_qNlI0L5MS78SAmKYr-13">
          <mxGeometry relative="1" as="geometry" />
        </mxCell>
        <mxCell id="Fu_qNlI0L5MS78SAmKYr-18" value="" style="image;html=1;image=img/lib/clip_art/computers/Database_128x128.png" vertex="1" parent="1">
          <mxGeometry x="474" y="350" width="80" height="80" as="geometry" />
        </mxCell>
        <mxCell id="Fu_qNlI0L5MS78SAmKYr-19" value="" style="image;html=1;image=img/lib/clip_art/computers/Database_128x128.png" vertex="1" parent="1">
          <mxGeometry x="205" y="330" width="80" height="80" as="geometry" />
        </mxCell>
        <mxCell id="Fu_qNlI0L5MS78SAmKYr-23" value="User DB" style="text;html=1;align=center;verticalAlign=middle;resizable=0;points=[];autosize=1;strokeColor=none;fillColor=none;" vertex="1" parent="1">
          <mxGeometry x="205" y="295" width="70" height="30" as="geometry" />
        </mxCell>
        <mxCell id="Fu_qNlI0L5MS78SAmKYr-24" value="Metadata DB" style="text;html=1;align=center;verticalAlign=middle;resizable=0;points=[];autosize=1;strokeColor=none;fillColor=none;" vertex="1" parent="1">
          <mxGeometry x="474" y="440" width="90" height="30" as="geometry" />
        </mxCell>
        <mxCell id="Fu_qNlI0L5MS78SAmKYr-25" value="Video Metadata:&lt;br&gt;&lt;div style=&quot;text-align: left;&quot;&gt;&lt;span style=&quot;background-color: initial;&quot;&gt;1.Video ID,Title,Description, Size, Thumbnail, Uploader/User, Likes, Dislikes, views&amp;nbsp;&lt;/span&gt;&lt;/div&gt;" style="text;html=1;align=center;verticalAlign=middle;resizable=0;points=[];autosize=1;strokeColor=none;fillColor=none;" vertex="1" parent="1">
          <mxGeometry x="-120" y="940" width="470" height="40" as="geometry" />
        </mxCell>
        <mxCell id="Fu_qNlI0L5MS78SAmKYr-26" value="For Each Comment:&lt;br&gt;Video ID&lt;br&gt;UserID&lt;br&gt;Comment&lt;br&gt;Creation Time" style="text;html=1;align=center;verticalAlign=middle;resizable=0;points=[];autosize=1;strokeColor=none;fillColor=none;" vertex="1" parent="1">
          <mxGeometry x="430" y="930" width="130" height="90" as="geometry" />
        </mxCell>
        <mxCell id="Fu_qNlI0L5MS78SAmKYr-27" value="System is read Heavy:&lt;br&gt;&lt;div style=&quot;text-align: left;&quot;&gt;&lt;span style=&quot;background-color: initial;&quot;&gt;1. Store videos in HDFS/Blob/S3&lt;/span&gt;&lt;/div&gt;" style="text;html=1;align=center;verticalAlign=middle;resizable=0;points=[];autosize=1;strokeColor=none;fillColor=none;" vertex="1" parent="1">
          <mxGeometry x="-50" y="1155" width="200" height="40" as="geometry" />
        </mxCell>
        <mxCell id="Fu_qNlI0L5MS78SAmKYr-29" style="edgeStyle=orthogonalEdgeStyle;rounded=0;orthogonalLoop=1;jettySize=auto;html=1;" edge="1" parent="1" source="Fu_qNlI0L5MS78SAmKYr-28" target="Fu_qNlI0L5MS78SAmKYr-2">
          <mxGeometry relative="1" as="geometry" />
        </mxCell>
        <mxCell id="Fu_qNlI0L5MS78SAmKYr-28" value="" style="image;html=1;image=img/lib/clip_art/computers/Server_Rack_128x128.png" vertex="1" parent="1">
          <mxGeometry x="10" y="535" width="80" height="80" as="geometry" />
        </mxCell>
        <mxCell id="Fu_qNlI0L5MS78SAmKYr-36" style="edgeStyle=orthogonalEdgeStyle;rounded=0;orthogonalLoop=1;jettySize=auto;html=1;" edge="1" parent="1" source="Fu_qNlI0L5MS78SAmKYr-30" target="Fu_qNlI0L5MS78SAmKYr-31">
          <mxGeometry relative="1" as="geometry" />
        </mxCell>
        <mxCell id="Fu_qNlI0L5MS78SAmKYr-30" value="web server" style="text;html=1;align=center;verticalAlign=middle;resizable=0;points=[];autosize=1;strokeColor=none;fillColor=none;" vertex="1" parent="1">
          <mxGeometry y="615" width="80" height="30" as="geometry" />
        </mxCell>
        <mxCell id="Fu_qNlI0L5MS78SAmKYr-35" style="edgeStyle=orthogonalEdgeStyle;rounded=0;orthogonalLoop=1;jettySize=auto;html=1;entryX=1;entryY=0.5;entryDx=0;entryDy=0;" edge="1" parent="1" source="Fu_qNlI0L5MS78SAmKYr-31" target="Fu_qNlI0L5MS78SAmKYr-33">
          <mxGeometry relative="1" as="geometry" />
        </mxCell>
        <mxCell id="Fu_qNlI0L5MS78SAmKYr-31" value="Video Cache" style="rounded=1;whiteSpace=wrap;html=1;" vertex="1" parent="1">
          <mxGeometry x="-40" y="755" width="120" height="60" as="geometry" />
        </mxCell>
        <mxCell id="Fu_qNlI0L5MS78SAmKYr-34" style="edgeStyle=orthogonalEdgeStyle;rounded=0;orthogonalLoop=1;jettySize=auto;html=1;entryX=0.5;entryY=1;entryDx=0;entryDy=0;" edge="1" parent="1" source="Fu_qNlI0L5MS78SAmKYr-33" target="Fu_qNlI0L5MS78SAmKYr-1">
          <mxGeometry relative="1" as="geometry" />
        </mxCell>
        <mxCell id="Fu_qNlI0L5MS78SAmKYr-33" value="CDN" style="rounded=1;whiteSpace=wrap;html=1;" vertex="1" parent="1">
          <mxGeometry x="-250" y="750" width="120" height="55" as="geometry" />
        </mxCell>
        <mxCell id="Fu_qNlI0L5MS78SAmKYr-40" style="edgeStyle=orthogonalEdgeStyle;rounded=0;orthogonalLoop=1;jettySize=auto;html=1;" edge="1" parent="1" source="Fu_qNlI0L5MS78SAmKYr-39" target="Fu_qNlI0L5MS78SAmKYr-9">
          <mxGeometry relative="1" as="geometry" />
        </mxCell>
        <mxCell id="Fu_qNlI0L5MS78SAmKYr-43" style="edgeStyle=orthogonalEdgeStyle;rounded=0;orthogonalLoop=1;jettySize=auto;html=1;entryX=1;entryY=0.5;entryDx=0;entryDy=0;" edge="1" parent="1" source="Fu_qNlI0L5MS78SAmKYr-39" target="Fu_qNlI0L5MS78SAmKYr-31">
          <mxGeometry relative="1" as="geometry" />
        </mxCell>
        <mxCell id="Fu_qNlI0L5MS78SAmKYr-39" value="" style="shape=datastore;whiteSpace=wrap;html=1;" vertex="1" parent="1">
          <mxGeometry x="220" y="750" width="60" height="60" as="geometry" />
        </mxCell>
        <mxCell id="Fu_qNlI0L5MS78SAmKYr-41" value="video storage" style="text;html=1;align=center;verticalAlign=middle;resizable=0;points=[];autosize=1;strokeColor=none;fillColor=none;" vertex="1" parent="1">
          <mxGeometry x="190" y="815" width="100" height="30" as="geometry" />
        </mxCell>
        <mxCell id="Fu_qNlI0L5MS78SAmKYr-46" value="Why no load balancer" style="text;html=1;align=center;verticalAlign=middle;resizable=0;points=[];autosize=1;strokeColor=none;fillColor=none;" vertex="1" parent="1">
          <mxGeometry x="-40" y="1235" width="140" height="30" as="geometry" />
        </mxCell>
      </root>
    </mxGraphModel>
  </diagram>
</mxfile>
